<svg width="41" height="41" viewBox="0 0 41 41" fill="none" xmlns="http://www.w3.org/2000/svg">
<path d="M5.5 8.96505V32.2984C5.5 34.1317 6.98333 35.6317 8.83333 35.6317H32.1667C34 35.6317 35.5 34.1317 35.5 32.2984V8.96505C35.5 7.13171 34 5.63171 32.1667 5.63171H8.83333C6.98333 5.63171 5.5 7.13171 5.5 8.96505ZM25.5 15.6317C25.5 18.3984 23.2667 20.6317 20.5 20.6317C17.7333 20.6317 15.5 18.3984 15.5 15.6317C15.5 12.865 17.7333 10.6317 20.5 10.6317C23.2667 10.6317 25.5 12.865 25.5 15.6317ZM10.5 28.965C10.5 25.6317 17.1667 23.7984 20.5 23.7984C23.8333 23.7984 30.5 25.6317 30.5 28.965V30.6317H10.5V28.965Z" fill="black"/>
</svg>
