<svg width="41" height="41" viewBox="0 0 41 41" fill="none" xmlns="http://www.w3.org/2000/svg">
<path d="M20.4999 11.965V5.29834H3.83325V35.2983H37.1666V11.965H20.4999ZM10.4999 31.965H7.16659V28.6317H10.4999V31.965ZM10.4999 25.2983H7.16659V21.965H10.4999V25.2983ZM10.4999 18.6317H7.16659V15.2983H10.4999V18.6317ZM10.4999 11.965H7.16659V8.63167H10.4999V11.965ZM17.1666 31.965H13.8333V28.6317H17.1666V31.965ZM17.1666 25.2983H13.8333V21.965H17.1666V25.2983ZM17.1666 18.6317H13.8333V15.2983H17.1666V18.6317ZM17.1666 11.965H13.8333V8.63167H17.1666V11.965ZM33.8333 31.965H20.4999V28.6317H23.8333V25.2983H20.4999V21.965H23.8333V18.6317H20.4999V15.2983H33.8333V31.965ZM30.4999 18.6317H27.1666V21.965H30.4999V18.6317ZM30.4999 25.2983H27.1666V28.6317H30.4999V25.2983Z" fill="black"/>
</svg>
