<svg width="41" height="41" viewBox="0 0 41 41" fill="none" xmlns="http://www.w3.org/2000/svg">
<path d="M32.4 22.525C32.46 22.025 32.5 21.505 32.5 20.965C32.5 20.425 32.46 19.905 32.38 19.405L35.76 16.765C36.06 16.525 36.14 16.085 35.96 15.745L32.76 10.205C32.56 9.84503 32.14 9.72503 31.78 9.84503L27.8 11.445C26.96 10.805 26.08 10.285 25.1 9.88503L24.5 5.64503C24.44 5.24503 24.1 4.96503 23.7 4.96503H17.3C16.9 4.96503 16.58 5.24503 16.52 5.64503L15.92 9.88503C14.94 10.285 14.04 10.825 13.22 11.445L9.24002 9.84503C8.88002 9.70503 8.46002 9.84503 8.26002 10.205L5.06001 15.745C4.86001 16.105 4.94002 16.525 5.26002 16.765L8.64002 19.405C8.56002 19.905 8.50002 20.445 8.50002 20.965C8.50002 21.485 8.54002 22.025 8.62002 22.525L5.24001 25.165C4.94001 25.405 4.86001 25.845 5.04001 26.185L8.24002 31.725C8.44002 32.085 8.86002 32.205 9.22002 32.085L13.2 30.485C14.04 31.125 14.92 31.645 15.9 32.045L16.5 36.285C16.58 36.685 16.9 36.965 17.3 36.965H23.7C24.1 36.965 24.44 36.685 24.48 36.285L25.08 32.045C26.06 31.645 26.96 31.105 27.78 30.485L31.76 32.085C32.12 32.225 32.54 32.085 32.74 31.725L35.94 26.185C36.14 25.825 36.06 25.405 35.74 25.165L32.4 22.525V22.525ZM20.5 26.965C17.2 26.965 14.5 24.265 14.5 20.965C14.5 17.665 17.2 14.965 20.5 14.965C23.8 14.965 26.5 17.665 26.5 20.965C26.5 24.265 23.8 26.965 20.5 26.965Z" fill="black"/>
</svg>
